<svg width="27" height="20" fill="none" xmlns="http://www.w3.org/2000/svg"><path d="M26.648 1.456l-8.154 8.101 8.154 8.101c.147-.308.237-.648.237-1.012V2.469c0-.364-.09-.705-.237-1.013zM24.522.106H2.363C2 .106 1.66.195 1.351.342l10.421 10.37c.921.92 2.42.92 3.341 0L25.534.341a2.336 2.336 0 00-1.012-.236zM.236 1.456A2.335 2.335 0 000 2.47v14.177c0 .364.09.704.236 1.012l8.154-8.1L.236 1.455z" fill="#fff"/><path d="M17.38 10.671l-1.153 1.154a3.942 3.942 0 01-5.569 0l-1.154-1.154-8.153 8.101c.308.148.648.237 1.012.237h22.16c.363 0 .703-.09 1.011-.237l-8.153-8.1z" fill="#fff"/></svg>